<?xml version="1.0" standalone="no"?>
<!DOCTYPE svg PUBLIC "-//W3C//DTD SVG 20010904//EN"
 "http://www.w3.org/TR/2001/REC-SVG-20010904/DTD/svg10.dtd">
<svg version="1.0" xmlns="http://www.w3.org/2000/svg"
 width="16.000000pt" height="16.000000pt" viewBox="0 0 16.000000 16.000000"
 preserveAspectRatio="xMidYMid meet">
<metadata>
Created by potrace 1.11, written by Peter Selinger 2001-2013
</metadata>
<g transform="translate(0.000000,16.000000) scale(0.005333,-0.005333)"
fill="#000000" stroke="none">
<path d="M210 1989 c-44 -18 -90 -59 -112 -102 -17 -33 -23 -67 -28 -159 -4
-94 -9 -121 -24 -137 -11 -12 -25 -21 -33 -21 -9 0 -13 -16 -13 -60 0 -44 4
-60 13 -60 8 0 22 -9 33 -21 15 -17 20 -43 24 -144 8 -156 28 -203 110 -252
30 -18 60 -33 67 -33 11 0 49 70 41 75 -37 20 -60 39 -70 57 -6 13 -15 80 -19
149 -7 132 -14 155 -57 202 l-26 27 26 28 c43 45 49 69 57 195 8 130 16 154
63 181 26 16 27 18 15 49 -15 35 -30 41 -67 26z"/>
<path d="M2670 1974 c-15 -38 -12 -50 15 -62 41 -19 57 -65 62 -181 5 -136 7
-144 45 -186 l31 -36 -26 -27 c-37 -39 -47 -73 -47 -161 0 -126 -14 -180 -56
-220 -33 -30 -35 -36 -27 -65 8 -26 14 -31 38 -29 43 3 106 52 134 103 21 38
26 63 31 165 3 66 11 130 18 142 6 12 28 27 47 33 34 11 35 13 35 60 0 47 -1
49 -35 60 -51 17 -65 51 -65 157 0 107 -12 153 -51 198 -28 32 -101 75 -127
75 -7 0 -17 -12 -22 -26z"/>
<path d="M351 1638 c-46 -145 -86 -269 -88 -275 -4 -10 13 -13 64 -13 l70 0
13 55 13 55 83 0 83 0 16 -55 16 -55 70 0 c39 0 68 3 66 8 -3 4 -44 127 -91
275 l-87 267 -72 0 -72 0 -84 -262z m179 30 c11 -40 23 -81 26 -90 5 -16 -2
-18 -49 -18 l-54 0 26 90 c14 49 27 90 28 90 0 0 11 -33 23 -72z"/>
<path d="M770 1850 l0 -50 120 0 c66 0 120 -2 120 -4 0 -3 -54 -91 -120 -196
-83 -132 -120 -200 -120 -221 l0 -29 210 0 210 0 0 50 0 49 -125 3 -126 3 121
193 c84 134 120 201 120 222 l0 30 -205 0 -205 0 0 -50z"/>
<path d="M1240 1624 l0 -275 143 3 c137 3 145 4 185 31 23 15 54 46 69 69 25
37 28 52 31 145 5 120 -7 175 -49 226 -52 63 -97 77 -247 77 l-132 0 0 -276z
m228 165 c54 -19 67 -51 67 -164 0 -80 -4 -105 -18 -127 -21 -30 -63 -48 -113
-48 l-34 0 0 175 0 175 34 0 c18 0 47 -5 64 -11z"/>
<path d="M1750 1625 l0 -275 195 0 195 0 0 50 0 50 -130 0 -130 0 0 65 0 65
110 0 110 0 0 50 0 50 -110 0 -110 0 0 60 0 60 130 0 130 0 1 38 c1 42 8 21
115 -310 l57 -178 73 0 c41 0 74 2 74 4 0 2 38 122 85 267 47 145 85 267 85
271 0 4 -31 8 -68 8 l-68 0 -54 -201 c-35 -130 -56 -195 -60 -183 -4 11 -29
101 -55 202 l-48 182 -264 0 -263 0 0 -275z"/>
<path d="M1230 1292 l0 -38 -39 4 c-48 5 -71 -22 -71 -83 0 -65 21 -85 86 -84
l54 2 0 118 c0 99 -3 119 -15 119 -11 0 -15 -11 -15 -38z m-19 -62 c14 -8 19
-21 19 -56 0 -38 -4 -46 -25 -56 -21 -9 -29 -9 -42 5 -23 22 -21 87 3 104 21
16 20 16 45 3z"/>
<path d="M1770 1210 c0 -100 3 -120 15 -120 13 0 15 20 15 120 0 100 -2 120
-15 120 -12 0 -15 -20 -15 -120z"/>
<path d="M630 1280 c0 -11 -7 -20 -15 -20 -8 0 -15 -4 -15 -10 0 -5 7 -10 15
-10 12 0 15 -13 15 -59 0 -78 6 -91 41 -91 33 0 39 15 9 23 -17 4 -20 14 -20
66 0 48 3 61 15 61 8 0 15 5 15 10 0 6 -7 10 -15 10 -8 0 -15 9 -15 20 0 11
-7 20 -15 20 -8 0 -15 -9 -15 -20z"/>
<path d="M312 1248 c-14 -14 -16 -38 -3 -38 5 0 14 7 21 15 15 18 42 19 58 3
23 -23 13 -38 -26 -38 -52 0 -80 -29 -66 -68 9 -25 13 -27 72 -28 l62 -1 0 61
c0 79 -17 106 -69 106 -20 0 -42 -5 -49 -12z m88 -98 c0 -35 -65 -55 -77 -24
-8 21 21 44 54 44 16 0 23 -6 23 -20z"/>
<path d="M460 1251 c0 -6 20 -11 44 -13 l45 -3 -49 -65 c-27 -36 -50 -68 -50
-72 0 -5 32 -8 70 -8 80 0 96 17 19 22 l-50 3 45 60 c25 33 46 66 46 73 0 8
-19 12 -60 12 -33 0 -60 -4 -60 -9z"/>
<path d="M747 1248 c-42 -33 -41 -125 3 -148 28 -15 76 -12 90 5 17 21 7 29
-18 16 -29 -15 -39 -14 -62 9 -32 32 -24 40 40 40 48 0 60 3 60 16 0 19 -19
56 -34 66 -17 12 -61 9 -79 -4z m64 -18 c36 -20 23 -40 -26 -40 -42 0 -45 2
-35 19 8 16 21 26 38 30 2 1 12 -4 23 -9z"/>
<path d="M896 1238 c-9 -12 -16 -41 -16 -63 0 -56 22 -85 66 -85 38 0 83 35
66 52 -7 7 -17 3 -31 -11 -12 -12 -27 -21 -35 -21 -19 0 -46 38 -46 65 0 27
27 65 46 65 8 0 23 -9 34 -20 36 -36 53 -23 24 18 -11 16 -25 22 -54 22 -29 0
-43 -6 -54 -22z"/>
<path d="M1311 1234 c-43 -55 -12 -144 50 -144 35 0 72 17 64 30 -3 5 -18 4
-35 -1 -35 -13 -70 3 -70 31 0 18 7 20 55 20 51 0 55 2 55 23 0 65 -79 92
-119 41z m87 -21 c14 -23 14 -23 -32 -23 -49 0 -56 8 -30 35 21 20 43 16 62
-12z"/>
<path d="M1466 1193 c15 -37 29 -76 31 -85 10 -35 31 -17 56 50 14 37 28 75
32 85 5 12 2 17 -8 17 -10 0 -23 -23 -38 -67 l-22 -68 -22 65 c-14 41 -28 66
-38 68 -14 3 -13 -6 9 -65z"/>
<path d="M1621 1234 c-43 -55 -12 -144 50 -144 35 0 72 17 64 30 -3 5 -18 4
-35 -1 -35 -13 -70 3 -70 31 0 18 7 20 55 20 51 0 55 2 55 23 0 65 -79 92
-119 41z m87 -21 c14 -23 14 -23 -32 -23 -49 0 -56 8 -30 35 21 20 43 16 62
-12z"/>
<path d="M1851 1234 c-45 -57 -12 -144 55 -144 49 0 74 29 74 85 0 56 -25 85
-74 85 -25 0 -40 -7 -55 -26z m84 -8 c13 -9 19 -26 19 -51 0 -55 -44 -83 -78
-49 -32 31 -12 114 28 114 7 0 21 -6 31 -14z"/>
<path d="M2010 1144 c0 -95 3 -114 15 -114 10 0 15 10 15 33 0 32 1 32 38 29
51 -5 75 22 74 84 -1 65 -21 84 -88 83 l-54 -2 0 -113z m104 74 c21 -30 20
-61 -3 -89 -16 -21 -22 -22 -45 -11 -22 10 -26 18 -26 56 0 32 5 48 18 55 26
16 39 13 56 -11z"/>
<path d="M2201 1234 c-43 -55 -12 -144 50 -144 35 0 72 17 64 30 -3 5 -18 4
-35 -1 -35 -13 -70 3 -70 31 0 18 7 20 55 20 51 0 55 2 55 23 0 65 -79 92
-119 41z m87 -21 c14 -23 14 -23 -32 -23 -49 0 -56 8 -30 35 21 20 43 16 62
-12z"/>
<path d="M2350 1173 c0 -66 3 -83 15 -83 11 0 15 16 17 67 3 59 6 69 26 79 39
19 36 24 -11 22 l-47 -2 0 -83z"/>
<path d="M2471 1246 c-24 -28 -9 -59 36 -76 53 -19 59 -26 43 -45 -16 -19 -44
-19 -64 0 -16 16 -36 20 -36 7 0 -19 39 -42 71 -42 42 0 59 15 59 52 0 29 0
29 -79 60 -23 8 -23 10 -7 26 16 16 19 16 48 -1 34 -20 48 -15 32 11 -15 23
-86 28 -103 8z"/>
</g>
</svg>
